<svg height="48" viewBox="0 0 48 48" width="48" xmlns="http://www.w3.org/2000/svg"><path d="m24 44c-11.028 0-20-8.972-20-20s8.972-20 20-20 20 8.972 20 20-8.972 20-20 20zm0-42c-12.131 0-22 9.869-22 22s9.869 22 22 22 22-9.869 22-22-9.869-22-22-22zm-6.769 33.25h-5.355l6.345-13.291 2.681 5.533zm1.883-16.035c-.168-.345-.517-.564-.9-.564h-.003c-.385.001-.734.223-.899.57l-7.923 16.598c-.149.31-.127.674.056.964.183.291.502.467.846.467h7.573c.387 0 .739-.223.905-.572l4.146-8.763c.129-.273.128-.592-.004-.864zm17.011 16.035h-5.452l-9.912-21.297c-.164-.352-.518-.578-.907-.578h-3.603l.004-4.125h7.22l9.864 21.295c.164.353.517.58.907.58h1.879zm1-6.125h-2.24l-9.864-21.295c-.165-.353-.518-.58-.908-.58h-8.857c-.552 0-.999.447-1 .999l-.006 6.125c0 .266.105.52.293.708.187.188.441.293.707.293h3.967l9.912 21.297c.164.352.517.578.906.578h7.09c.553 0 1-.447 1-1v-6.125c0-.553-.447-1-1-1z" fill="#f90" fill-rule="evenodd"/></svg>
